# xmcd CD database file
#
# Track frame offsets:
#	150
#	22330
#	45407
#	88490
#	114698
#	133153
#	158908
#
# Disc length: 2475 seconds
#
# Revision: 0
# Processed by: cddbd v1.5.2PL0 Copyright (c) Steve Scherf et al.
# Submitted via: CDex 1.70beta2
#
DISCID=6209a907
DTITLE=Jukka Tolonen Band with Joachim Kühn - JTB
DYEAR=1979
DGENRE=Jazz
TTITLE0=Charterflight
TTITLE1=Space Cookie
TTITLE2=Grand Hotel
TTITLE3=Dancing Bear
TTITLE4=Soita Saatana
TTITLE5=Arka Haiven
TTITLE6=Funky Nightmare
EXTD=YEAR: 1979
EXTT0=
EXTT1=
EXTT2=
EXTT3=
EXTT4=
EXTT5=
EXTT6=
PLAYORDER=
